<?xml version="1.0" encoding="UTF-8"?>
<svg version="1.1" xmlns="http://www.w3.org/2000/svg" width="2000" height="389">
<path d="M0 0 C0.99 0 1.98 0 3 0 C3.07814941 1.28463135 3.15629883 2.5692627 3.23681641 3.89282227 C3.54875401 8.73534894 3.94600947 13.56795359 4.3671875 18.40209961 C4.53673066 20.4804483 4.68418998 22.56073751 4.80761719 24.64233398 C5.66033659 38.70205276 7.87382611 47.40570449 18.55566406 56.98730469 C19.14014313 57.49009445 19.72462219 57.99288422 20.32681274 58.51091003 C22.81593425 60.72615871 24.94211231 63.17183476 27.125 65.6875 C29.11098649 67.92463264 31.07961664 70.07614901 33.2421875 72.14453125 C35 74 35 74 35 76 C35.99 76.33 36.98 76.66 38 77 C39.56494141 78.57080078 39.56494141 78.57080078 41.2265625 80.5703125 C44.81623355 84.80065975 48.56287637 88.84537969 52.375 92.875 C57.33039791 98.1376716 62.26661875 103.40805733 67.0546875 108.82421875 C68.38476657 110.31187746 69.74607669 111.77203907 71.1328125 113.20703125 C71.79023437 113.90183594 72.44765625 114.59664063 73.125 115.3125 C73.70507812 115.90675781 74.28515625 116.50101562 74.8828125 117.11328125 C76 119 76 119 75.92578125 121.37890625 C74.78313176 124.61400249 73.13976858 126.89788067 71.0625 129.625 C70.35222656 130.56601563 69.64195312 131.50703125 68.91015625 132.4765625 C68.27980469 133.30929688 67.64945313 134.14203125 67 135 C66.34 135.99 65.68 136.98 65 138 C62.93722534 138.36076355 62.93722534 138.36076355 60.36669922 138.34057617 C59.40585419 138.34034958 58.44500916 138.34012299 57.45504761 138.33988953 C56.41542877 138.32440567 55.37580994 138.30892181 54.3046875 138.29296875 C53.24210724 138.28872391 52.17952698 138.28447906 51.08474731 138.28010559 C47.68124354 138.26327389 44.27832567 138.22561303 40.875 138.1875 C38.57162312 138.17245899 36.26823698 138.15876958 33.96484375 138.14648438 C28.30969495 138.11335574 22.65488932 138.06311197 17 138 C16.95196732 137.23412567 16.90393463 136.46825134 16.85444641 135.6791687 C16.74340828 134.18064865 16.74340828 134.18064865 16.63012695 132.65185547 C16.56146927 131.65910614 16.49281158 130.66635681 16.42207336 129.64352417 C16.20623594 126.81217703 16.20623594 126.81217703 13.91796875 124.5703125 C13.01691406 124.09335938 12.11585938 123.61640625 11.1875 123.125 C10.18976562 122.58617187 9.19203125 122.04734375 8.1640625 121.4921875 C7.11992188 120.99976563 6.07578125 120.50734375 5 120 C4.01773438 119.52820313 3.03546875 119.05640625 2.0234375 118.5703125 C-11.95637006 112.33657245 -25.14144315 109.62208068 -39.91015625 114.609375 C-46.6625783 117.64839175 -52.49092977 122.82640749 -55.40234375 129.74609375 C-57.30273565 136.91293119 -56.84855852 143.15650618 -53.4375 149.75 C-44.47964302 164.29089342 -30.67266552 173.09093569 -16.67773438 182.24462891 C-11.62442167 185.55729469 -6.59401786 188.90436633 -1.5625 192.25 C-0.58063721 192.89912354 0.40122559 193.54824707 1.4128418 194.21704102 C7.17651487 198.04572157 12.81144973 202.00912715 18.38989258 206.10253906 C22.24397408 208.90432762 26.17995903 211.57862184 30.125 214.25 C43.72850805 223.52254015 57.1074217 232.98137221 70.140625 243.04296875 C73.25920408 245.44554753 76.42157623 247.7736632 79.625 250.0625 C86.03148723 254.67478076 92.14235021 259.65111379 98.27978516 264.61181641 C100.59525293 266.48035881 102.92266439 268.33377163 105.25 270.1875 C118.27855545 280.6189299 131.13643393 291.20417396 143.34375 302.58984375 C145.05950575 304.14663977 146.82395178 305.65209202 148.640625 307.08984375 C150.78083285 308.8225617 152.48161005 310.52615335 154.25 312.625 C156.18482006 314.8997776 158.12881069 317.13786226 160.16796875 319.3203125 C165.75999105 325.30695255 171.30648742 331.63457433 175 339 C174.58349609 341.16650391 174.58349609 341.16650391 174 343 C166.4737876 341.75835938 158.94822659 340.51282681 151.4230957 339.26464844 C148.86562527 338.84091021 146.30800964 338.41804725 143.75024414 337.99609375 C140.06357477 337.38774667 136.37744732 336.7762036 132.69140625 336.1640625 C131.55667374 335.97752106 130.42194122 335.79097961 129.25282288 335.5987854 C123.11751063 334.57644781 117.05757346 333.41315453 111 332 C112.55074423 327.27727895 114.1190025 322.60435476 116 318 C105.7542867 309.27308083 95.43767569 301.1051786 84 294 C83.34596191 293.5879834 82.69192383 293.1759668 82.01806641 292.75146484 C60.08945317 279.02036543 36.17373524 270.12535286 11.22387695 263.5949707 C9.63460601 263.16978097 8.05023264 262.72611147 6.46948242 262.27026367 C-25.30088773 253.19996172 -65.25740043 251.07136289 -97 261 C-97.67144043 261.20818359 -98.34288086 261.41636719 -99.03466797 261.63085938 C-102.8117703 262.85138185 -106.40546321 264.32221759 -110 266 C-111.05445313 266.48597656 -112.10890625 266.97195313 -113.1953125 267.47265625 C-118.87550402 270.20110206 -124.01404045 273.14721307 -129 277 C-132.00408121 275.60913604 -134.48086767 273.96757445 -137.08203125 271.92578125 C-137.84966797 271.34119141 -138.61730469 270.75660156 -139.40820312 270.15429688 C-141.00939305 268.92771515 -142.60066514 267.68807568 -144.18164062 266.43554688 C-148.89455105 262.82474431 -148.89455105 262.82474431 -154.63671875 261.9921875 C-156.30154297 262.49105469 -156.30154297 262.49105469 -158 263 C-159.11375 263.27457031 -160.2275 263.54914063 -161.375 263.83203125 C-162.57125 264.15558594 -163.7675 264.47914063 -165 264.8125 C-222.23326482 279.55821805 -282.0870136 274.01433696 -337.4375 254.4375 C-338.43740967 254.0859082 -339.43731934 253.73431641 -340.4675293 253.37207031 C-346.56764936 251.13780453 -352.05359721 248.43277992 -357.60961914 245.05883789 C-359.90444155 243.79968018 -359.90444155 243.79968018 -362.19750977 244.25878906 C-364.35204045 245.1447643 -366.002927 246.299835 -367.875 247.6875 C-396.05735071 266.85698855 -433.44509963 268.18737574 -466.22219849 268.12927246 C-469.98406264 268.12494645 -473.7457207 268.1344949 -477.50756836 268.14550781 C-498.66956997 268.17219867 -498.66956997 268.17219867 -509.0390625 267.3515625 C-523.56855812 265.63788326 -523.56855812 265.63788326 -536.70996094 270.71411133 C-539.12349965 272.79653594 -541.30093895 275.02284947 -543.44335938 277.38085938 C-545.95761043 279.99605903 -548.83741963 282.00579396 -551.8125 284.0625 C-552.6638855 284.6644519 -552.6638855 284.6644519 -553.5324707 285.27856445 C-599.11600672 317.14703739 -657.39723504 343.89563362 -713.9375 343.4375 C-715.12782333 343.43343643 -715.12782333 343.43343643 -716.3421936 343.42929077 C-737.37450681 343.32136003 -757.98940773 340.69206692 -778 334 C-779.13260254 333.62391602 -779.13260254 333.62391602 -780.28808594 333.24023438 C-782.55485976 332.47418838 -784.81028251 331.68276477 -787.0625 330.875 C-787.74852295 330.63346191 -788.4345459 330.39192383 -789.14135742 330.14306641 C-791.03515625 329.4296875 -791.03515625 329.4296875 -794 328 C-794.495 326.515 -794.495 326.515 -795 325 C-793.10286458 324.57161458 -791.20572917 324.14322917 -789.30859375 323.71484375 C-788.06770996 323.43455322 -786.82682617 323.1542627 -785.54833984 322.86547852 C-782.78454884 322.24134974 -780.02052763 321.61825333 -777.25634766 320.99584961 C-770.6279264 319.50247027 -764.00086762 318.00410781 -757.38032532 316.47612 C-754.55747809 315.82491404 -751.73374551 315.17759576 -748.90994263 314.5305481 C-747.55929438 314.2198915 -746.20908817 313.90730642 -744.85934448 313.59274292 C-742.96726134 313.15197605 -741.07350368 312.71841636 -739.1796875 312.28515625 C-737.56682861 311.91209351 -737.56682861 311.91209351 -735.92138672 311.53149414 C-733 311 -733 311 -728 311 C-728 315.29 -728 319.58 -728 324 C-702.41648307 320.87312571 -677.71698874 314.30820126 -655 302 C-653.52853516 301.24589844 -653.52853516 301.24589844 -652.02734375 300.4765625 C-631.0535305 289.55207272 -613.11700044 273.02157695 -598 255 C-596.77410156 253.57300781 -596.77410156 253.57300781 -595.5234375 252.1171875 C-594.59848593 251.03686262 -593.67402276 249.95611942 -592.75 248.875 C-592.28207031 248.32924316 -591.81414062 247.78348633 -591.33203125 247.22119141 C-588.83039017 244.2722201 -586.44111216 241.28266282 -584.1640625 238.15625 C-579.13567416 231.2899414 -575.64903217 226.65130192 -567 225 C-530.50324775 213.91350175 -511.22784858 179.40967214 -492.93359375 148.27734375 C-479.9818499 126.32479206 -464.67846321 107.89619497 -439.3046875 100.5234375 C-409.21977908 93.69059389 -383.84344266 104.57214554 -356.82421875 116.78515625 C-318.282177 134.14011775 -280.31427756 143.35081684 -239.20703125 128.27734375 C-216.8425525 119.7734267 -197.91161994 107.50108666 -179 93 C-178.38833984 92.53158691 -177.77667969 92.06317383 -177.14648438 91.58056641 C-170.68286391 86.61276193 -164.35943283 81.51378252 -158.1875 76.1875 C-140.71156149 61.11225162 -123.33797353 47.97541373 -103 37 C-102.10796875 36.50628906 -101.2159375 36.01257813 -100.296875 35.50390625 C-93.1934704 31.72875248 -85.68495959 29.27963633 -78 27 C-76.36611328 26.51466797 -76.36611328 26.51466797 -74.69921875 26.01953125 C-62.3271322 22.86353792 -48.64133977 22.76435969 -36.08203125 24.94921875 C-26.89934149 26.93944152 -26.89934149 26.93944152 -18.12011719 24.9140625 C-14.68014443 21.79394324 -12.38857926 18.00008898 -10.13818359 13.97460938 C-8.33331275 10.84337913 -6.17319042 8.0064078 -4 5.125 C-3.29875 4.13757812 -2.5975 3.15015625 -1.875 2.1328125 C-1.25625 1.42898437 -0.6375 0.72515625 0 0 Z " fill="#EE303B" transform="translate(1825,39)"/>
<path d="M0 0 C0.71302164 0.00291284 1.42604329 0.00582568 2.16067165 0.00882679 C2.91289971 0.00797237 3.66512777 0.00711794 4.44015062 0.00623763 C6.97986272 0.00458057 9.51950987 0.01010786 12.05921596 0.01555592 C13.87214828 0.01583777 15.68508071 0.0156801 17.49801296 0.01511341 C22.43582271 0.01482535 27.37360838 0.02072349 32.31141251 0.02768737 C37.465744 0.03391945 42.62007599 0.03452459 47.77441067 0.03571278 C57.54210649 0.03882653 67.30979119 0.0470405 77.0774821 0.05706227 C88.19458369 0.06822206 99.31168579 0.07373352 110.42879158 0.0787577 C133.30422243 0.08922308 156.17964338 0.10682336 179.05506557 0.12908131 C179.07819267 8.32598692 179.09598253 16.52287899 179.10687774 24.71980911 C179.11210577 28.52559708 179.11920195 32.33136279 179.13050503 36.13713795 C179.14133677 39.80700675 179.14734301 43.47685409 179.14994282 47.14673764 C179.15179655 48.54983123 179.15541617 49.9529236 179.16079563 51.35600811 C179.16800977 53.31477811 179.16847366 55.27356951 179.16859096 57.23235279 C179.17081157 58.34932041 179.17303219 59.46628803 179.17532009 60.61710316 C179.05506557 63.12908131 179.05506557 63.12908131 178.05506557 64.12908131 C163.86506557 64.12908131 149.67506557 64.12908131 135.05506557 64.12908131 C135.38506557 115.27908131 135.71506557 166.42908131 136.05506557 219.12908131 C142.98506557 206.75408131 142.98506557 206.75408131 150.05506557 194.12908131 C161.14381896 174.61714025 161.14381896 174.61714025 165.02381557 168.21892506 C168.20189636 162.94339263 171.1288695 157.54710226 174.05506557 152.12908131 C182.69870915 136.33698786 191.42649511 120.59912278 200.40809292 104.99626881 C202.31337672 101.6793917 204.21033112 98.35779568 206.10584682 95.03533131 C206.45815365 94.41795597 206.81046047 93.80058064 207.17344326 93.16449696 C208.57471922 90.70888031 209.97596399 88.25324611 211.37659878 85.79726368 C212.34829635 84.09375262 213.32081587 82.39071049 214.29334682 80.68767506 C214.85062465 79.71112965 215.40790249 78.73458424 215.98206753 77.72844654 C218.9842033 72.51581108 222.02410701 67.32501028 225.05506557 62.12908131 C214.82506557 61.79908131 204.59506557 61.46908131 194.05506557 61.12908131 C194.05506557 40.99908131 194.05506557 20.86908131 194.05506557 0.12908131 C250.15506557 0.12908131 306.25506557 0.12908131 364.05506557 0.12908131 C362.57775337 3.82236182 361.19987834 6.75510059 359.17615932 10.10173756 C358.59358364 11.0690984 358.01100796 12.03645924 357.41077846 13.03313404 C356.46126308 14.59656544 356.46126308 14.59656544 355.49256557 16.19158131 C354.82926235 17.28994313 354.16595913 18.38830494 353.48255581 19.51995045 C351.70510681 22.4625279 349.92283697 25.40215653 348.13941616 28.34111744 C346.72206287 30.67816277 345.30763934 33.01697448 343.89316982 35.35576588 C335.94050923 48.50293086 327.92797641 61.61215172 319.86390346 74.69133717 C314.99567076 82.58981476 310.16416536 90.50993717 305.34779018 98.44011647 C300.90415675 105.75022414 296.42122825 113.03559903 291.93006557 120.31658131 C286.62796719 128.91331054 281.3872223 137.54283816 276.21082729 146.21575123 C272.82434206 151.87859782 269.35252752 157.48157863 265.83607143 163.06438404 C262.565805 168.27253807 259.3944704 173.53610407 256.24256557 178.81658131 C251.47745365 186.79955072 246.61517661 194.71732962 241.70692104 202.61296803 C238.17941124 208.29375738 234.71197806 214.00590018 231.28992885 219.75066334 C228.66572262 224.14348645 225.96787383 228.48588108 223.24256557 232.81658131 C219.49727095 238.77082649 215.84776635 244.77654672 212.24256557 250.81658131 C207.47746241 258.79955601 202.61517655 266.71732971 197.70692104 274.61296803 C194.54987839 279.69714789 191.43054745 284.80022101 188.36756557 289.94158131 C186.16479369 293.63803755 183.9457049 297.32172685 181.66834682 300.97283131 C181.28360038 301.59036715 180.89885393 302.20790299 180.5024485 302.84415203 C179.66784364 304.16791735 178.8212483 305.48426714 177.95815414 306.78963619 C175.62369356 310.36851296 173.70505992 313.82034378 172.1473965 317.80434376 C169.93582736 322.99846797 167.56322621 327.58725627 163.05506557 331.12908131 C154.7355143 334.17735192 145.41862371 333.28715478 136.6985957 332.95417219 C133.22525692 332.84081748 129.75157181 332.83101384 126.27666897 332.80971485 C119.7118366 332.75399581 113.15246831 332.60665012 106.59003174 332.42542404 C99.11306528 332.22347381 91.63582242 332.12508223 84.15680319 332.03490621 C68.78640373 331.84728585 53.42144185 331.53118262 38.05506557 331.12908131 C37.08680253 328.22429218 36.84774561 326.08378144 36.69788784 323.04802662 C36.64428097 322.00596058 36.59067409 320.96389454 36.53544277 319.89025074 C36.48133236 318.75734608 36.42722194 317.62444142 36.37147182 316.45720631 C36.31172176 315.28031239 36.2519717 314.10341847 36.19041103 312.89086109 C36.06248803 310.3661075 35.93637146 307.84126185 35.81187099 305.31633717 C35.48773319 298.74825757 35.15042772 292.18085831 34.81287807 285.61345631 C34.74715099 284.33027516 34.68142391 283.047094 34.6137051 281.72502857 C34.14671333 272.6871121 33.61253807 263.6577458 32.99256557 254.62908131 C32.2309115 243.42564531 31.6462026 232.22034533 31.11756557 221.00408131 C30.38541458 205.49912763 29.56536466 190.00104626 28.68006557 174.50408131 C28.61911709 173.43364582 28.5581686 172.36321034 28.49537319 171.26033741 C27.80104782 159.06859457 27.09884209 146.87731534 26.39171642 134.6863094 C26.018458 128.24702458 25.64824946 121.80756757 25.27970928 115.36801106 C25.00908386 110.64282129 24.73490684 105.91785574 24.45800346 101.19302994 C24.28463312 98.22007972 24.11468144 95.24694072 23.9455933 92.27374417 C23.82920782 90.24462779 23.70884314 88.21574084 23.58831447 86.18686634 C23.51780376 84.9355341 23.44729305 83.68420185 23.37464565 82.39495045 C23.31263469 81.32459049 23.25062374 80.25423054 23.18673366 79.15143543 C22.99018525 73.14703979 23.05506557 67.13669301 23.05506557 61.12908131 C13.81506557 61.12908131 4.57506557 61.12908131 -4.94493443 61.12908131 C-6.26031755 58.49831506 -6.07203768 56.539618 -6.07432896 53.59368092 C-6.07748112 52.43585606 -6.08063328 51.2780312 -6.08388096 50.08512074 C-6.08185673 48.82990116 -6.0798325 47.57468159 -6.07774693 46.28142506 C-6.07870365 44.99925602 -6.07966038 43.71708699 -6.0806461 42.39606434 C-6.08212114 39.68165086 -6.07997437 36.96727027 -6.07530552 34.25286061 C-6.06960264 30.7666709 -6.07289196 27.28055808 -6.07887799 23.79437119 C-6.08335097 20.47754957 -6.08022372 17.16074887 -6.07774693 13.84392506 C-6.07977116 12.58668125 -6.08179539 11.32943745 -6.08388096 10.03409535 C-6.0807288 8.87942265 -6.07757664 7.72474995 -6.07432896 6.53508717 C-6.07353337 5.51297642 -6.07273777 4.49086567 -6.07191807 3.43778187 C-5.83807585 -0.81372366 -3.74180448 0.01158765 0 0 Z " fill="#243B80" transform="translate(353.9449344277382,49.870918691158295)"/>
<path d="M0 0 C1.2782666 0.09168457 2.5565332 0.18336914 3.87353516 0.27783203 C28.03431784 2.05925815 51.53236984 5.47902362 74.875 12.125 C74.26159718 16.45917515 72.67219352 19.7128861 70.625 23.5625 C64.47312728 35.54138367 61.00116679 47.84424996 58.32641602 60.97631836 C58.03218512 62.37681924 57.72094649 63.77388737 57.39038086 65.16625977 C55.72515011 72.18756243 54.7876336 79.29269982 53.8125 86.4375 C53.46936244 88.93385766 53.1243913 91.42996416 52.77734375 93.92578125 C52.55292603 95.56800659 52.55292603 95.56800659 52.32397461 97.2434082 C51.95712427 99.59791314 51.47185981 101.8233778 50.875 104.125 C43.26840211 104.94211842 35.76492073 105.27311116 28.1171875 105.2578125 C26.51268234 105.25924759 26.51268234 105.25924759 24.87576294 105.26071167 C22.63885437 105.26138681 20.40194377 105.25957945 18.16503906 105.25537109 C14.72456566 105.24996 11.28421968 105.25536561 7.84375 105.26171875 C5.66406221 105.26105889 3.4843745 105.25977963 1.3046875 105.2578125 C0.2725412 105.25983673 -0.7596051 105.26186096 -1.82302856 105.26394653 C-2.76846527 105.26079437 -3.71390198 105.25764221 -4.68798828 105.25439453 C-5.94060959 105.25320114 -5.94060959 105.25320114 -7.21853638 105.25198364 C-9.125 105.125 -9.125 105.125 -10.125 104.125 C-10.21237645 102.27130389 -10.23198153 100.41432459 -10.22265625 98.55859375 C-10.21943359 97.43388672 -10.21621094 96.30917969 -10.21289062 95.15039062 C-10.20451172 93.96638672 -10.19613281 92.78238281 -10.1875 91.5625 C-10.18298828 90.37462891 -10.17847656 89.18675781 -10.17382812 87.96289062 C-10.16199675 85.01687774 -10.14551287 82.07096319 -10.125 79.125 C-26.60616994 74.27377521 -42.99482433 72.52282127 -58.890625 80.515625 C-63.67482449 83.52555183 -68.9354195 87.41811367 -70.73046875 93.01171875 C-72.18546108 100.80529152 -71.26309897 107.34686757 -67.125 114.125 C-59.91934731 124.36964149 -49.01122765 129.95168471 -38.06152344 135.4347229 C-34.84419379 137.04899374 -31.64292326 138.69448982 -28.44140625 140.33984375 C-27.80913116 140.66454147 -27.17685608 140.9892392 -26.52542114 141.32377625 C-2.85353151 153.52004024 21.19068257 167.7664811 31.2890625 193.765625 C39.02892327 218.1545388 35.63881767 243.61483021 24.09765625 266.1328125 C20.61498589 272.5711804 16.4335611 278.41134312 11.875 284.125 C11.17068848 285.00865234 11.17068848 285.00865234 10.45214844 285.91015625 C-0.17704072 299.07755312 -12.08782862 309.70575792 -26.125 319.125 C-26.94226563 319.67800781 -27.75953125 320.23101562 -28.6015625 320.80078125 C-54.81575555 337.51120328 -87.13340498 344.45796702 -117.84375 344.42578125 C-119.43339139 344.42968869 -121.02303177 344.43402737 -122.6126709 344.43876648 C-125.93403508 344.44617713 -129.25529295 344.44597976 -132.57666016 344.44067383 C-135.91371278 344.43608166 -139.25039758 344.44281885 -142.58740234 344.46118164 C-223.45960519 344.90192987 -223.45960519 344.90192987 -247.125 329.125 C-245.73992849 320.51144828 -243.66055751 312.16454134 -241.375 303.75 C-241.01628543 302.41616011 -240.65780864 301.08225626 -240.29956055 299.74829102 C-238.0302248 291.32614234 -235.6527047 282.93819622 -233.20849609 274.56518555 C-231.20793724 267.62493287 -229.51238791 260.62698469 -227.94848633 253.57592773 C-226.4203888 246.84293878 -224.34384794 240.78154383 -222.125 234.125 C-201.005 234.125 -179.885 234.125 -158.125 234.125 C-157.795 244.685 -157.465 255.245 -157.125 266.125 C-149.93937627 267.15151768 -143.01274162 267.31107878 -135.78466797 267.31030273 C-133.52682199 267.3124742 -131.26947763 267.33062625 -129.01171875 267.34960938 C-114.95921329 267.40585722 -101.56966763 266.95260362 -90.1875 257.75 C-85.3187571 251.55341813 -84.29195905 245.77071829 -85.125 238.125 C-87.37671155 226.43006402 -93.436293 219.70448345 -103.125 213.125 C-113.09328974 206.64983155 -123.4180839 200.90052557 -134 195.5 C-155.50875752 184.47365784 -173.28501162 169.76652665 -183.125 147.125 C-183.43050781 146.42503906 -183.73601563 145.72507813 -184.05078125 145.00390625 C-192.2777779 123.36057659 -191.19809529 97.83898823 -182.6875 76.5625 C-181.85912319 74.73806891 -181.00693678 72.92415104 -180.125 71.125 C-179.57392578 69.98224609 -179.57392578 69.98224609 -179.01171875 68.81640625 C-166.85608078 45.38234131 -144.94672305 28.50188694 -121.125 18.125 C-120.48433594 17.84575684 -119.84367188 17.56651367 -119.18359375 17.27880859 C-81.92586366 1.29373702 -40.17533917 -2.90970895 0 0 Z " fill="#243B80" transform="translate(894.125,44.875)"/>
<path d="M0 0 C104.28 0 208.56 0 316 0 C314.87584116 11.24158836 314.87584116 11.24158836 313.6953125 16.13671875 C313.44136719 17.20986328 313.18742187 18.28300781 312.92578125 19.38867188 C312.66152344 20.47728516 312.39726562 21.56589844 312.125 22.6875 C310.23137608 30.58077156 308.47781899 38.47697626 306.91064453 46.44165039 C305.06733073 55.74251321 303.08453889 65.01572076 301.12890625 74.29345703 C300.62109776 76.70587626 300.11494558 79.11864465 299.61035156 81.53173828 C298.87665701 85.04015799 298.13812327 88.5475267 297.3984375 92.0546875 C297.17239838 93.13990692 296.94635925 94.22512634 296.71347046 95.3432312 C296.50300079 96.3358194 296.29253113 97.32840759 296.07568359 98.35107422 C295.891539 99.22738495 295.70739441 100.10369568 295.51766968 101.00656128 C295 103 295 103 294 104 C291.69946165 104.09443335 289.39597827 104.11742128 287.09350586 104.11352539 C286.37159561 104.11367142 285.64968536 104.11381744 284.90589905 104.1139679 C282.50885053 104.11326869 280.11187877 104.10547595 277.71484375 104.09765625 C276.05717511 104.0957921 274.39950593 104.09436818 272.74183655 104.09336853 C268.37045786 104.08954312 263.99911219 104.07971265 259.62774658 104.06866455 C255.17045539 104.05845092 250.71315889 104.05387101 246.25585938 104.04882812 C237.50389107 104.0380904 228.75194964 104.02101371 220 104 C219.96040264 99.43533038 220.16660854 95.32111378 221.09375 90.84765625 C221.29677734 89.85000244 221.49980469 88.85234863 221.70898438 87.82446289 C221.97001953 86.58301514 222.23105469 85.34156738 222.5 84.0625 C223.325 80.081875 224.15 76.10125 225 72 C216.09 72 207.18 72 198 72 C197.34 75.3 196.68 78.6 196 82 C195.11976178 86.07094436 194.18618201 90.12907746 193.25 94.1875 C192.98832031 95.32316406 192.72664062 96.45882812 192.45703125 97.62890625 C190.53251128 105.89789637 188.43517916 114.10965792 186.25097656 122.31323242 C184.34994938 129.51006646 182.64552703 136.74082606 181 144 C178.92420487 153.15728374 176.66608316 162.24351065 174.25 171.31640625 C172.34958397 178.51225235 170.64528222 185.74190604 169 193 C166.92570739 202.15065541 164.67137945 211.23095888 162.25439453 220.29663086 C160.02842798 228.71788886 158.06692228 237.19215356 156.1796875 245.6953125 C154.40481233 253.5914901 152.23462122 261.17882573 150 269 C164.85 269 179.7 269 195 269 C193.87544704 280.24552957 193.87544704 280.24552957 192.73046875 285.6171875 C192.48321045 286.7923291 192.23595215 287.9674707 191.98120117 289.17822266 C191.71927979 290.39815918 191.4573584 291.6180957 191.1875 292.875 C190.64523028 295.44258104 190.10356672 298.01029018 189.5625 300.578125 C189.29695312 301.83302734 189.03140625 303.08792969 188.7578125 304.38085938 C187.5233658 310.27629682 186.3577436 316.18511823 185.20581055 322.09716797 C184.60675904 325.13820238 183.98140297 328.0557911 183 331 C118.32 331 53.64 331 -13 331 C-11.640441 324.88198452 -10.18361118 319.00225732 -8.3203125 313.046875 C-8.06627655 312.22479553 -7.8122406 311.40271606 -7.55050659 310.5557251 C-6.7453382 307.95276987 -5.93529269 305.35136403 -5.125 302.75 C-4.58951369 301.02223768 -4.05435501 299.29437378 -3.51953125 297.56640625 C-2.48874103 294.23677195 -1.45481963 290.9081338 -0.41894531 287.58007812 C0.47876586 284.69155421 1.36610078 281.80033596 2.23925781 278.90429688 C2.59600586 277.72416016 2.95275391 276.54402344 3.3203125 275.328125 C3.62469238 274.31137695 3.92907227 273.29462891 4.24267578 272.24707031 C5 270 5 270 6 269 C8.66426685 268.83996512 11.30560428 268.74057111 13.97265625 268.68359375 C15.16912025 268.6524221 15.16912025 268.6524221 16.38975525 268.62062073 C18.94724611 268.55503842 21.5048428 268.49620033 24.0625 268.4375 C25.79232882 268.39432301 27.52214679 268.35070899 29.25195312 268.30664062 C33.5011926 268.19934828 37.7505389 268.09810574 42 268 C42.21503174 266.9790625 42.43006348 265.958125 42.65161133 264.90625 C47.08465294 243.89417725 51.66076708 222.92247239 56.5 202 C59.96308062 187.02574795 63.32028609 172.03700441 66.5 157 C69.79061431 141.44462375 73.25034909 125.93297625 76.8125 110.4375 C77.04356445 109.43211182 77.27462891 108.42672363 77.51269531 107.39086914 C80.30545559 95.25195081 83.13778364 83.12272058 86 71 C76.43 71 66.86 71 57 71 C56.34 74.3 55.68 77.6 55 81 C53.02 88.59 51.04 96.18 49 104 C24.91 104 0.82 104 -24 104 C-24 96.12579688 -24 96.12579688 -23.17724609 92.94604492 C-22.9056517 91.87003021 -22.9056517 91.87003021 -22.62857056 90.77227783 C-22.42887665 90.01598083 -22.22918274 89.25968384 -22.0234375 88.48046875 C-21.81770111 87.67285095 -21.61196472 86.86523315 -21.3999939 86.03314209 C-20.95995834 84.3087704 -20.51626658 82.58532824 -20.06921387 80.86276245 C-18.89688168 76.34499579 -17.75067539 71.82059244 -16.6015625 67.296875 C-16.37380127 66.4031871 -16.14604004 65.50949921 -15.91137695 64.58872986 C-14.08349898 57.39444816 -12.38038327 50.17931677 -10.75 42.9375 C-8.29919417 32.09540445 -5.56053752 21.34308631 -2.68261719 10.60693359 C-1.75881463 7.07890653 -0.88452001 3.53808006 0 0 Z " fill="#243B80" transform="translate(24,50)"/>
<path d="M0 0 C2.30820363 -0.00437805 4.61449433 -0.04087578 6.92236328 -0.07861328 C36.29182922 -0.30100412 64.25655252 13.49808461 86.00048828 32.67919922 C87.44189453 34.37060547 87.44189453 34.37060547 87.44189453 37.37060547 C86.04345703 38.84326172 86.04345703 38.84326172 84.06689453 40.43310547 C78.87521034 44.76881306 74.17751482 49.54764792 69.44189453 54.37060547 C68.72517578 54.07154297 68.00845703 53.77248047 67.27001953 53.46435547 C38.57561327 42.36707128 5.23897492 46.89782586 -22.55810547 58.37060547 C-51.94776698 71.51566373 -77.94796621 91.61175785 -103.7019043 110.64648438 C-107.64863573 113.56181502 -111.60104174 116.46931646 -115.55810547 119.37060547 C-116.29448242 119.91136719 -117.03085938 120.45212891 -117.78955078 121.00927734 C-146.29225365 141.84749501 -175.44787135 154.80848514 -211.53076172 149.75732422 C-217.08971145 148.82950918 -222.36927681 147.61389606 -227.55810547 145.37060547 C-227.06310547 144.38060547 -227.06310547 144.38060547 -226.55810547 143.37060547 C-224.5225117 143.18189541 -222.47698227 143.10077982 -220.43310547 143.05810547 C-205.18398023 142.38540552 -189.44835354 138.69393539 -175.55810547 132.37060547 C-174.84267578 132.06638672 -174.12724609 131.76216797 -173.39013672 131.44873047 C-154.7907013 122.98431675 -141.28997966 105.42717053 -129.55810547 89.37060547 C-130.90001953 89.47888672 -130.90001953 89.47888672 -132.26904297 89.58935547 C-139.38332695 90.13544123 -146.422934 90.51856985 -153.55810547 90.37060547 C-149.5791151 80.85097798 -137.68070551 74.17846284 -129.55810547 68.37060547 C-128.65680908 67.72454346 -128.65680908 67.72454346 -127.73730469 67.06542969 C-119.34332656 61.08512435 -110.79418625 55.56583948 -101.78979492 50.54272461 C-100.01543791 49.53730434 -98.28174876 48.46068185 -96.55810547 47.37060547 C-96.32368906 45.1845132 -96.32368906 45.1845132 -98.34326172 43.56591797 C-99.86032998 42.186765 -101.38116897 40.81174837 -102.90576172 39.44091797 C-104.55810547 37.37060547 -104.55810547 37.37060547 -104.68701172 35.39794922 C-102.96514685 32.30574207 -100.33602305 30.68842155 -97.43310547 28.80810547 C-96.77858398 28.38045898 -96.1240625 27.9528125 -95.44970703 27.51220703 C-80.32474431 17.95267682 -63.82695563 10.94121757 -46.55810547 6.37060547 C-45.81834473 6.1738623 -45.07858398 5.97711914 -44.31640625 5.77441406 C-29.61885 1.94265494 -15.1784482 -0.00320559 0 0 Z " fill="#EE303B" transform="translate(1735.55810546875,-0.37060546875)"/>
<path d="M0 0 C17.86384792 11.47545197 35.21234313 19.71924913 56.94238281 15.73730469 C62.94498334 14.10269822 68.53589484 11.89019344 74.21191406 9.35839844 C98.77308974 -1.34984041 127.3222963 2.42211426 152.21191406 10.42089844 C152.21191406 11.41089844 152.21191406 12.40089844 152.21191406 13.42089844 C151.25414062 13.51886719 150.29636719 13.61683594 149.30957031 13.71777344 C123.83319323 16.49630802 101.5437108 25.01094364 79.21191406 37.42089844 C26.5416551 66.51130801 26.5416551 66.51130801 5.80175781 61.33496094 C-4.28827377 57.77377332 -12.75857482 52.46622433 -20.78808594 45.42089844 C-36.19031922 32.08883216 -49.86283389 20.49978889 -69.78808594 14.42089844 C-69.78808594 13.76089844 -69.78808594 13.10089844 -69.78808594 12.42089844 C-67.99951172 12.02257812 -67.99951172 12.02257812 -66.17480469 11.61621094 C-64.60832418 11.25976627 -63.04192196 10.90297747 -61.47558594 10.54589844 C-60.68990234 10.371875 -59.90421875 10.19785156 -59.09472656 10.01855469 C-58.33740234 9.84453125 -57.58007812 9.67050781 -56.79980469 9.49121094 C-56.10330811 9.33410645 -55.40681152 9.17700195 -54.68920898 9.01513672 C-52.49074382 8.42576451 -52.49074382 8.42576451 -49.78808594 6.42089844 C-57.42630346 -0.71917446 -65.12197972 -4.40325232 -75.22558594 -6.82910156 C-76.24434814 -7.07394287 -76.24434814 -7.07394287 -77.28369141 -7.32373047 C-87.59680035 -9.61580367 -97.95370766 -9.71840359 -108.47558594 -9.64160156 C-109.66603516 -9.63708984 -110.85648438 -9.63257812 -112.08300781 -9.62792969 C-114.9847553 -9.61627608 -117.88639219 -9.59991716 -120.78808594 -9.57910156 C-117.24170463 -17.35643121 -107.58407942 -22.52612509 -99.78808594 -25.57910156 C-98.86511719 -25.95035156 -97.94214844 -26.32160156 -96.99121094 -26.70410156 C-61.83618505 -38.81492388 -28.57626348 -18.39042392 0 0 Z " fill="#EE303B" transform="translate(1235.7880859375,112.5791015625)"/>
</svg>
